<?xml version="1.0" encoding="UTF-8"?>
<!DOCTYPE svg PUBLIC "-//W3C//DTD SVG 1.1//EN" "http://www.w3.org/Graphics/SVG/1.1/DTD/svg11.dtd">
<!-- Creator: CorelDRAW X6 -->
<svg xmlns="http://www.w3.org/2000/svg" xml:space="preserve" width="5.6444mm" height="5.6444mm" version="1.1" style="shape-rendering:geometricPrecision; text-rendering:geometricPrecision; image-rendering:optimizeQuality; fill-rule:evenodd; clip-rule:evenodd"
viewBox="0 0 564 564"
 xmlns:xlink="http://www.w3.org/1999/xlink">
 <defs>
  <style type="text/css">
   <![CDATA[
    .fil0 {fill:#C4170C}
   ]]>
  </style>
 </defs>
 <g id="Camada_x0020_1">
  <metadata id="CorelCorpID_0Corel-Layer"/>
  <path class="fil0" d="M2 263c0,61 55,107 124,107l245 0 0 -207 -138 0 0 102 -66 0c-17,0 -30,-11 -30,-27l0 -102c0,-14 8,-27 25,-27l110 0 61 -77 -209 0c-69,0 -124,52 -124,113l0 113 3 5 0 1 -1 -1zm424 107l138 0 0 -309c0,-14 -14,-27 -30,-27l-135 0 -61 77 61 0c17,0 30,11 30,27l0 231 -3 0 -1 0 1 1z"/>
 </g>
</svg>
