<?xml version="1.0" encoding="UTF-8"?>
<!DOCTYPE svg PUBLIC "-//W3C//DTD SVG 1.1//EN" "http://www.w3.org/Graphics/SVG/1.1/DTD/svg11.dtd">
<!-- Creator: CorelDRAW X6 -->
<svg xmlns="http://www.w3.org/2000/svg" xml:space="preserve" width="5.6444mm" height="5.6444mm" version="1.1" style="shape-rendering:geometricPrecision; text-rendering:geometricPrecision; image-rendering:optimizeQuality; fill-rule:evenodd; clip-rule:evenodd"
viewBox="0 0 564 564"
 xmlns:xlink="http://www.w3.org/1999/xlink">
 <defs>
  <style type="text/css">
   <![CDATA[
    .fil0 {fill:#FF6600}
   ]]>
  </style>
 </defs>
 <g id="Camada_x0020_1">
  <metadata id="CorelCorpID_0Corel-Layer"/>
  <path class="fil0" d="M272 224l-91 0c-11,0 -19,3 -25,11 -8,8 -11,17 -11,25 0,11 3,19 11,25 8,8 17,11 25,11l35 0c-5,8 -14,14 -19,19 -11,8 -25,11 -35,11 -22,0 -41,-8 -57,-22 -17,-17 -22,-33 -22,-57 0,-22 8,-41 22,-55 17,-17 33,-22 57,-22 19,0 35,5 49,19 8,5 17,8 25,8 11,0 22,-3 27,-11 8,-8 11,-17 11,-27 0,-14 -5,-22 -14,-30 -30,-25 -63,-35 -101,-35 -44,0 -82,17 -112,47 -30,30 -47,69 -47,112 0,44 17,82 47,112 30,30 69,47 112,47 39,0 71,-17 101,-47 30,-30 44,-66 44,-104 0,-11 -3,-19 -11,-25 -8,-8 -17,-11 -25,-11l0 0 3 0 1 -1 0 0zm210 -5c-8,-3 -17,-8 -27,-11 -25,-8 -35,-19 -35,-27 0,-11 8,-17 22,-17 8,0 19,3 39,11 17,8 30,11 35,11 11,0 19,-3 27,-11 8,-8 11,-17 11,-27 0,-22 -14,-39 -41,-49 -22,-8 -44,-14 -66,-14 -30,0 -57,8 -79,25 -25,19 -35,41 -35,74 0,25 8,44 27,60 14,11 33,22 60,33l5 3c30,11 44,22 44,30 0,14 -8,19 -25,19 -8,0 -25,-5 -41,-14 -19,-8 -33,-14 -41,-14 -11,0 -19,5 -25,14 -5,8 -8,17 -8,27 0,22 14,41 41,52 22,11 47,14 71,14 33,0 63,-8 85,-27 25,-19 39,-47 39,-77 0,-22 -8,-41 -22,-55 -11,-11 -27,-22 -52,-33l0 0 0 0 -8 3 0 1 -1 -1z"/>
 </g>
</svg>
