<?xml version="1.0" encoding="UTF-8"?>
<!DOCTYPE svg PUBLIC "-//W3C//DTD SVG 1.1//EN" "http://www.w3.org/Graphics/SVG/1.1/DTD/svg11.dtd">
<!-- Creator: CorelDRAW X6 -->
<svg xmlns="http://www.w3.org/2000/svg" xml:space="preserve" width="5.6444mm" height="5.6444mm" version="1.1" style="shape-rendering:geometricPrecision; text-rendering:geometricPrecision; image-rendering:optimizeQuality; fill-rule:evenodd; clip-rule:evenodd"
viewBox="0 0 564 564"
 xmlns:xlink="http://www.w3.org/1999/xlink">
 <defs>
  <style type="text/css">
   <![CDATA[
    .fil0 {fill:#06AA48}
   ]]>
  </style>
 </defs>
 <g id="Camada_x0020_1">
  <metadata id="CorelCorpID_0Corel-Layer"/>
  <path id="Fill-1" class="fil0" d="M139 295c-36,0 -69,-31 -69,-72 0,-45 31,-72 69,-72 36,0 67,28 67,72 0,42 -31,72 -67,72m225 -105c9,-28 31,-47 64,-47 28,0 50,17 59,47l-123 0 0 0zm-103 -103l-39 0c-9,0 -14,5 -14,14l0 17c-17,-19 -45,-33 -75,-33 -72,0 -133,61 -133,142 0,81 59,136 133,136 33,0 59,-17 72,-31 0,55 -31,81 -81,81 -28,0 -53,-9 -81,-28 -9,-5 -17,-3 -19,5l-17 36c-3,9 -3,17 5,22 36,22 81,36 117,36 97,0 150,-53 150,-173l0 -203c0,-9 -5,-14 -14,-14l-5 -9 1 1zm164 -5c-75,0 -136,61 -136,142 0,81 61,142 139,142 64,0 111,-28 128,-78 3,-9 0,-17 -11,-17l-45 0c-9,0 -11,3 -17,9 -11,14 -28,22 -50,22 -36,0 -64,-22 -69,-59l186 0c9,0 14,-5 14,-14l0 0c0,-83 -50,-147 -136,-147l0 0 -3 0 -1 0z"/>
 </g>
</svg>
