<?xml version="1.0" encoding="UTF-8"?>
<!DOCTYPE svg PUBLIC "-//W3C//DTD SVG 1.1//EN" "http://www.w3.org/Graphics/SVG/1.1/DTD/svg11.dtd">
<!-- Creator: CorelDRAW X6 -->
<svg xmlns="http://www.w3.org/2000/svg" xml:space="preserve" width="5.6444mm" height="5.6444mm" version="1.1" style="shape-rendering:geometricPrecision; text-rendering:geometricPrecision; image-rendering:optimizeQuality; fill-rule:evenodd; clip-rule:evenodd"
viewBox="0 0 564 564"
 xmlns:xlink="http://www.w3.org/1999/xlink">
 <defs>
  <style type="text/css">
   <![CDATA[
    .fil0 {fill:#CCCCCC}
   ]]>
  </style>
 </defs>
 <g id="Camada_x0020_1">
  <metadata id="CorelCorpID_0Corel-Layer"/>
  <g id="_375537024">
   <g id="_375525168">
    <g id="_373509280">
     <g>
      <path id="cor-primaria" class="fil0" d="M298 71l68 0 0 71 58 0 0 71 -58 0 0 185c0,19 8,27 25,27l35 0 0 71 -44 0c-48,0 -83,-32 -83,-85l0 -336 -2 -2 1 0z"/>
      <path class="fil0" d="M138 71l68 0 0 71 58 0 0 71 -58 0 0 185c0,19 8,27 25,27l35 0 0 71 -44 0c-48,0 -83,-32 -83,-85l0 -336 -2 -2 1 0z"/>
     </g>
    </g>
   </g>
  </g>
 </g>
</svg>
